<svg width="554" height="718" viewBox="0 0 554 718" fill="none" xmlns="http://www.w3.org/2000/svg">
<path d="M554 277C554 429.983 352.5 603.5 277 554C197.5 600 0 429.983 0 277C0 124.017 124.017 0 277 0C429.983 0 554 124.017 554 277Z" fill="#D9B600"/>
<path d="M147 521H277V718L255.515 673.64C233.329 627.832 204.812 585.37 170.803 547.503L147 521Z" fill="#D9B600"/>
<path d="M407 521H277V718L298.485 673.64C320.671 627.832 349.188 585.37 383.197 547.503L407 521Z" fill="#D9B600"/>
<rect x="129" y="154" width="296" height="239" rx="22" fill="#D9D9D9"/>
<circle cx="173.5" cy="349.5" r="17.5" fill="#D9B600"/>
<circle cx="380.5" cy="349.5" r="17.5" fill="#D9B600"/>
<rect x="156" y="384" width="31" height="31" rx="10" fill="#D9D9D9"/>
<rect x="367" y="384" width="31" height="31" rx="10" fill="#D9D9D9"/>
<rect x="129" y="120" width="296" height="52" fill="#D9B600"/>
<rect x="129" y="119" width="296" height="112" rx="56" fill="#D9D9D9"/>
<rect x="156" y="170" width="242" height="102" rx="19" fill="#D9B600"/>
</svg>
